<svg width="219" height="48" viewBox="0 0 219 48" fill="none" xmlns="http://www.w3.org/2000/svg">
<rect width="219" height="48" rx="24" fill="#F5F5F5"/>
<path d="M18.6452 33.7684C18.6452 33.6363 18.5161 33.5042 18.3226 33.5042C18.129 33.5042 18 33.6363 18 33.7684C18 33.9006 18.129 34.0327 18.3226 33.9667C18.5161 33.9667 18.6452 33.9006 18.6452 33.7684ZM16.6452 33.4381C16.6452 33.5702 16.7742 33.7684 16.9677 33.7684C17.0968 33.8345 17.2903 33.7684 17.3548 33.6363C17.3548 33.5042 17.2903 33.372 17.0968 33.3059C16.9032 33.2399 16.7097 33.3059 16.6452 33.4381ZM19.5484 33.372C19.3548 33.372 19.2258 33.5042 19.2258 33.7024C19.2258 33.8345 19.4194 33.9006 19.6129 33.8345C19.8065 33.7684 19.9355 33.7024 19.871 33.5702C19.871 33.4381 19.6774 33.3059 19.5484 33.372ZM23.7419 8C14.8387 8 8 15.0037 8 24.1218C8 31.4559 12.4516 37.7328 18.9032 39.9793C19.7419 40.1115 20 39.5829 20 39.1864C20 38.7239 20 36.4774 20 35.0899C20 35.0899 15.4839 36.081 14.5161 33.1077C14.5161 33.1077 13.8065 31.1916 12.7742 30.7291C12.7742 30.7291 11.2903 29.6719 12.8387 29.6719C12.8387 29.6719 14.4516 29.8041 15.3548 31.3898C16.7742 33.9667 19.0968 33.2399 20.0645 32.7774C20.1935 31.7202 20.5806 30.9934 21.0968 30.5309C17.4839 30.1344 13.8065 29.6059 13.8065 23.2628C13.8065 21.4128 14.3226 20.5539 15.3548 19.3645C15.1613 18.902 14.6452 17.1841 15.5484 14.8716C16.8387 14.4751 20 16.6556 20 16.6556C21.2903 16.2591 22.6452 16.127 24 16.127C25.4194 16.127 26.7742 16.2591 28.0645 16.6556C28.0645 16.6556 31.1613 14.4091 32.5161 14.8716C33.4194 17.1841 32.8387 18.902 32.7097 19.3645C33.7419 20.5539 34.3871 21.4128 34.3871 23.2628C34.3871 29.6059 30.5806 30.1344 26.9677 30.5309C27.5484 31.0595 28.0645 32.0506 28.0645 33.6363C28.0645 35.8167 28 38.5918 28 39.1204C28 39.5829 28.3226 40.1115 29.1613 39.9132C35.6129 37.7328 40 31.4559 40 24.1218C40 15.0037 32.7097 8 23.7419 8ZM14.2581 30.7952C14.129 30.8612 14.1935 31.0595 14.2581 31.1916C14.3871 31.2577 14.5161 31.3237 14.6452 31.2577C14.7097 31.1916 14.7097 30.9934 14.5806 30.8612C14.4516 30.7952 14.3226 30.7291 14.2581 30.7952ZM13.5484 30.2666C13.4839 30.3987 13.5484 30.4648 13.6774 30.5309C13.8065 30.5969 13.9355 30.5969 14 30.4648C14 30.3987 13.9355 30.3327 13.8065 30.2666C13.6774 30.2005 13.6129 30.2005 13.5484 30.2666ZM15.6129 32.6452C15.5484 32.7113 15.5484 32.9095 15.7419 33.0416C15.871 33.1738 16.0645 33.2399 16.129 33.1077C16.1935 33.0416 16.1935 32.8434 16.0645 32.7113C15.9355 32.5791 15.7419 32.5131 15.6129 32.6452ZM14.9032 31.6541C14.7742 31.7202 14.7742 31.9184 14.9032 32.0506C15.0323 32.1827 15.1613 32.2488 15.2903 32.1827C15.3548 32.1166 15.3548 31.9184 15.2903 31.7863C15.1613 31.6541 15.0323 31.588 14.9032 31.6541Z" fill="#333333"/>
<path d="M61.02 31L54.9 17H57.72L63.18 29.66H61.56L67.08 17H69.68L63.58 31H61.02ZM71.0345 31V20.32H73.5345V31H71.0345ZM72.2945 18.56C71.8279 18.56 71.4412 18.4133 71.1345 18.12C70.8412 17.8267 70.6945 17.4733 70.6945 17.06C70.6945 16.6333 70.8412 16.28 71.1345 16C71.4412 15.7067 71.8279 15.56 72.2945 15.56C72.7612 15.56 73.1412 15.7 73.4345 15.98C73.7412 16.2467 73.8945 16.5867 73.8945 17C73.8945 17.44 73.7479 17.8133 73.4545 18.12C73.1612 18.4133 72.7745 18.56 72.2945 18.56ZM81.8358 31.14C80.6491 31.14 79.6091 30.9067 78.7158 30.44C77.8358 29.96 77.1491 29.3067 76.6558 28.48C76.1758 27.6533 75.9358 26.7133 75.9358 25.66C75.9358 24.5933 76.1691 23.6533 76.6358 22.84C77.1158 22.0133 77.7691 21.3667 78.5958 20.9C79.4358 20.4333 80.3891 20.2 81.4558 20.2C82.4958 20.2 83.4224 20.4267 84.2358 20.88C85.0491 21.3333 85.6891 21.9733 86.1558 22.8C86.6224 23.6267 86.8558 24.6 86.8558 25.72C86.8558 25.8267 86.8491 25.9467 86.8358 26.08C86.8358 26.2133 86.8291 26.34 86.8158 26.46H77.9158V24.8H85.4958L84.5158 25.32C84.5291 24.7067 84.4024 24.1667 84.1358 23.7C83.8691 23.2333 83.5024 22.8667 83.0358 22.6C82.5824 22.3333 82.0558 22.2 81.4558 22.2C80.8424 22.2 80.3024 22.3333 79.8358 22.6C79.3824 22.8667 79.0224 23.24 78.7558 23.72C78.5024 24.1867 78.3758 24.74 78.3758 25.38V25.78C78.3758 26.42 78.5224 26.9867 78.8158 27.48C79.1091 27.9733 79.5224 28.3533 80.0558 28.62C80.5891 28.8867 81.2024 29.02 81.8958 29.02C82.4958 29.02 83.0358 28.9267 83.5158 28.74C83.9958 28.5533 84.4224 28.26 84.7958 27.86L86.1358 29.4C85.6558 29.96 85.0491 30.3933 84.3158 30.7C83.5958 30.9933 82.7691 31.14 81.8358 31.14ZM91.4219 31L87.5019 20.32H89.8619L93.2219 29.74H92.1019L95.6219 20.32H97.7219L101.142 29.74H100.042L103.502 20.32H105.722L101.782 31H99.3819L96.2619 22.66H97.0019L93.8219 31H91.4219ZM116.988 31.14C115.815 31.14 114.908 30.84 114.268 30.24C113.628 29.6267 113.308 28.7267 113.308 27.54V17.96H115.808V27.48C115.808 27.9867 115.935 28.38 116.188 28.66C116.455 28.94 116.821 29.08 117.288 29.08C117.848 29.08 118.315 28.9333 118.688 28.64L119.388 30.42C119.095 30.66 118.735 30.84 118.308 30.96C117.881 31.08 117.441 31.14 116.988 31.14ZM111.548 22.4V20.4H118.668V22.4H111.548ZM127.505 20.2C128.358 20.2 129.118 20.3667 129.785 20.7C130.465 21.0333 130.998 21.5467 131.385 22.24C131.771 22.92 131.965 23.8 131.965 24.88V31H129.465V25.2C129.465 24.2533 129.238 23.5467 128.785 23.08C128.345 22.6133 127.725 22.38 126.925 22.38C126.338 22.38 125.818 22.5 125.365 22.74C124.911 22.98 124.558 23.34 124.305 23.82C124.065 24.2867 123.945 24.88 123.945 25.6V31H121.445V16.16H123.945V23.2L123.405 22.32C123.778 21.64 124.318 21.12 125.025 20.76C125.745 20.3867 126.571 20.2 127.505 20.2ZM140.176 31.14C138.989 31.14 137.949 30.9067 137.056 30.44C136.176 29.96 135.489 29.3067 134.996 28.48C134.516 27.6533 134.276 26.7133 134.276 25.66C134.276 24.5933 134.509 23.6533 134.976 22.84C135.456 22.0133 136.109 21.3667 136.936 20.9C137.776 20.4333 138.729 20.2 139.796 20.2C140.836 20.2 141.762 20.4267 142.576 20.88C143.389 21.3333 144.029 21.9733 144.496 22.8C144.962 23.6267 145.196 24.6 145.196 25.72C145.196 25.8267 145.189 25.9467 145.176 26.08C145.176 26.2133 145.169 26.34 145.156 26.46H136.256V24.8H143.836L142.856 25.32C142.869 24.7067 142.742 24.1667 142.476 23.7C142.209 23.2333 141.842 22.8667 141.376 22.6C140.922 22.3333 140.396 22.2 139.796 22.2C139.182 22.2 138.642 22.3333 138.176 22.6C137.722 22.8667 137.362 23.24 137.096 23.72C136.842 24.1867 136.716 24.74 136.716 25.38V25.78C136.716 26.42 136.862 26.9867 137.156 27.48C137.449 27.9733 137.862 28.3533 138.396 28.62C138.929 28.8867 139.542 29.02 140.236 29.02C140.836 29.02 141.376 28.9267 141.856 28.74C142.336 28.5533 142.762 28.26 143.136 27.86L144.476 29.4C143.996 29.96 143.389 30.3933 142.656 30.7C141.936 30.9933 141.109 31.14 140.176 31.14ZM158.024 31.14C156.904 31.14 155.904 30.9067 155.024 30.44C154.158 29.96 153.478 29.3067 152.984 28.48C152.491 27.6533 152.244 26.7133 152.244 25.66C152.244 24.5933 152.491 23.6533 152.984 22.84C153.478 22.0133 154.158 21.3667 155.024 20.9C155.904 20.4333 156.904 20.2 158.024 20.2C159.064 20.2 159.978 20.4133 160.764 20.84C161.564 21.2533 162.171 21.8667 162.584 22.68L160.664 23.8C160.344 23.2933 159.951 22.92 159.484 22.68C159.031 22.44 158.538 22.32 158.004 22.32C157.391 22.32 156.838 22.4533 156.344 22.72C155.851 22.9867 155.464 23.3733 155.184 23.88C154.904 24.3733 154.764 24.9667 154.764 25.66C154.764 26.3533 154.904 26.9533 155.184 27.46C155.464 27.9533 155.851 28.3333 156.344 28.6C156.838 28.8667 157.391 29 158.004 29C158.538 29 159.031 28.88 159.484 28.64C159.951 28.4 160.344 28.0267 160.664 27.52L162.584 28.64C162.171 29.44 161.564 30.06 160.764 30.5C159.978 30.9267 159.064 31.14 158.024 31.14ZM169.389 31.14C168.296 31.14 167.323 30.9067 166.469 30.44C165.616 29.96 164.943 29.3067 164.449 28.48C163.956 27.6533 163.709 26.7133 163.709 25.66C163.709 24.5933 163.956 23.6533 164.449 22.84C164.943 22.0133 165.616 21.3667 166.469 20.9C167.323 20.4333 168.296 20.2 169.389 20.2C170.496 20.2 171.476 20.4333 172.329 20.9C173.196 21.3667 173.869 22.0067 174.349 22.82C174.843 23.6333 175.089 24.58 175.089 25.66C175.089 26.7133 174.843 27.6533 174.349 28.48C173.869 29.3067 173.196 29.96 172.329 30.44C171.476 30.9067 170.496 31.14 169.389 31.14ZM169.389 29C170.003 29 170.549 28.8667 171.029 28.6C171.509 28.3333 171.883 27.9467 172.149 27.44C172.429 26.9333 172.569 26.34 172.569 25.66C172.569 24.9667 172.429 24.3733 172.149 23.88C171.883 23.3733 171.509 22.9867 171.029 22.72C170.549 22.4533 170.009 22.32 169.409 22.32C168.796 22.32 168.249 22.4533 167.769 22.72C167.303 22.9867 166.929 23.3733 166.649 23.88C166.369 24.3733 166.229 24.9667 166.229 25.66C166.229 26.34 166.369 26.9333 166.649 27.44C166.929 27.9467 167.303 28.3333 167.769 28.6C168.249 28.8667 168.789 29 169.389 29ZM182 31.14C180.973 31.14 180.047 30.9133 179.22 30.46C178.407 29.9933 177.767 29.3533 177.3 28.54C176.833 27.7267 176.6 26.7667 176.6 25.66C176.6 24.5533 176.833 23.5933 177.3 22.78C177.767 21.9667 178.407 21.3333 179.22 20.88C180.047 20.4267 180.973 20.2 182 20.2C182.893 20.2 183.693 20.4 184.4 20.8C185.107 21.1867 185.667 21.78 186.08 22.58C186.493 23.38 186.7 24.4067 186.7 25.66C186.7 26.9 186.5 27.9267 186.1 28.74C185.7 29.54 185.147 30.14 184.44 30.54C183.733 30.94 182.92 31.14 182 31.14ZM182.3 29C182.9 29 183.433 28.8667 183.9 28.6C184.38 28.3333 184.76 27.9467 185.04 27.44C185.333 26.9333 185.48 26.34 185.48 25.66C185.48 24.9667 185.333 24.3733 185.04 23.88C184.76 23.3733 184.38 22.9867 183.9 22.72C183.433 22.4533 182.9 22.32 182.3 22.32C181.7 22.32 181.16 22.4533 180.68 22.72C180.213 22.9867 179.833 23.3733 179.54 23.88C179.26 24.3733 179.12 24.9667 179.12 25.66C179.12 26.34 179.26 26.9333 179.54 27.44C179.833 27.9467 180.213 28.3333 180.68 28.6C181.16 28.8667 181.7 29 182.3 29ZM185.54 31V28.48L185.64 25.64L185.44 22.8V16.16H187.92V31H185.54ZM196.23 31.14C195.044 31.14 194.004 30.9067 193.11 30.44C192.23 29.96 191.544 29.3067 191.05 28.48C190.57 27.6533 190.33 26.7133 190.33 25.66C190.33 24.5933 190.564 23.6533 191.03 22.84C191.51 22.0133 192.164 21.3667 192.99 20.9C193.83 20.4333 194.784 20.2 195.85 20.2C196.89 20.2 197.817 20.4267 198.63 20.88C199.444 21.3333 200.084 21.9733 200.55 22.8C201.017 23.6267 201.25 24.6 201.25 25.72C201.25 25.8267 201.244 25.9467 201.23 26.08C201.23 26.2133 201.224 26.34 201.21 26.46H192.31V24.8H199.89L198.91 25.32C198.924 24.7067 198.797 24.1667 198.53 23.7C198.264 23.2333 197.897 22.8667 197.43 22.6C196.977 22.3333 196.45 22.2 195.85 22.2C195.237 22.2 194.697 22.3333 194.23 22.6C193.777 22.8667 193.417 23.24 193.15 23.72C192.897 24.1867 192.77 24.74 192.77 25.38V25.78C192.77 26.42 192.917 26.9867 193.21 27.48C193.504 27.9733 193.917 28.3533 194.45 28.62C194.984 28.8867 195.597 29.02 196.29 29.02C196.89 29.02 197.43 28.9267 197.91 28.74C198.39 28.5533 198.817 28.26 199.19 27.86L200.53 29.4C200.05 29.96 199.444 30.3933 198.71 30.7C197.99 30.9933 197.164 31.14 196.23 31.14Z" fill="#333333"/>
</svg>
