<svg width="1512" height="11" viewBox="0 0 1512 11" fill="none" xmlns="http://www.w3.org/2000/svg">
<path d="M-4 5.2453C2.87266 2.25157 8.59988 2.25157 13.1816 5.2453C17.7634 8.23904 23.4906 8.23904 30.3633 5.2453C37.236 2.25157 42.9632 2.25157 47.5449 5.2453C52.1267 8.23904 57.8539 8.23904 64.7266 5.2453C71.5993 2.25157 77.3265 2.25157 81.9082 5.2453C86.49 8.23904 92.2172 8.23904 99.0899 5.2453C105.963 2.25157 111.69 2.25157 116.272 5.2453C120.853 8.23904 126.581 8.23904 133.453 5.2453C140.326 2.25157 146.053 2.25157 150.635 5.2453C155.217 8.23904 160.944 8.23904 167.816 5.2453" stroke="#FF4575" stroke-width="5.99997"/>
<path d="M167.816 5.2453C174.689 2.25157 180.416 2.25157 184.998 5.2453C189.58 8.23904 195.307 8.23904 202.18 5.2453C209.052 2.25157 214.78 2.25157 219.361 5.2453C223.943 8.23904 229.67 8.23904 236.543 5.2453C243.416 2.25157 249.143 2.25157 253.725 5.2453C258.306 8.23904 264.034 8.23904 270.906 5.2453C277.779 2.25157 283.506 2.25157 288.088 5.2453C292.67 8.23904 298.397 8.23904 305.27 5.2453C312.142 2.25157 317.869 2.25157 322.451 5.2453C327.033 8.23904 332.76 8.23904 339.633 5.2453" stroke="#FF4575" stroke-width="5.99997"/>
<path d="M339.633 5.2453C346.506 2.25157 352.233 2.25157 356.815 5.2453C361.396 8.23904 367.124 8.23904 373.996 5.2453C380.869 2.25157 386.596 2.25157 391.178 5.2453C395.76 8.23904 401.487 8.23904 408.36 5.2453C415.232 2.25157 420.96 2.25157 425.541 5.2453C430.123 8.23904 435.85 8.23904 442.723 5.2453C449.596 2.25157 455.323 2.25157 459.905 5.2453C464.486 8.23904 470.214 8.23904 477.086 5.2453C483.959 2.25157 489.686 2.25157 494.268 5.2453C498.85 8.23904 504.577 8.23904 511.45 5.2453" stroke="#FF4575" stroke-width="5.99997"/>
<path d="M511.449 5.2453C518.322 2.25157 524.049 2.25157 528.631 5.2453C533.213 8.23904 538.94 8.23904 545.813 5.2453C552.685 2.25157 558.413 2.25157 562.994 5.2453C567.576 8.23904 573.303 8.23904 580.176 5.2453C587.049 2.25157 592.776 2.25157 597.358 5.2453C601.939 8.23904 607.667 8.23904 614.539 5.2453C621.412 2.25157 627.139 2.25157 631.721 5.2453C636.303 8.23904 642.03 8.23904 648.903 5.2453C655.775 2.25157 661.503 2.25157 666.084 5.2453C670.666 8.23904 676.393 8.23904 683.266 5.2453" stroke="#FF4575" stroke-width="5.99997"/>
<path d="M683.266 5.2453C690.139 2.25157 695.866 2.25157 700.448 5.2453C705.03 8.23904 710.757 8.23904 717.629 5.2453C724.502 2.25157 730.229 2.25157 734.811 5.2453C739.393 8.23904 745.12 8.23904 751.993 5.2453C758.865 2.25157 764.593 2.25157 769.174 5.2453C773.756 8.23904 779.483 8.23904 786.356 5.2453C793.229 2.25157 798.956 2.25157 803.538 5.2453C808.119 8.23904 813.847 8.23904 820.719 5.2453C827.592 2.25157 833.319 2.25157 837.901 5.2453C842.483 8.23904 848.21 8.23904 855.083 5.2453" stroke="#FF4575" stroke-width="5.99997"/>
<path d="M855.083 5.2453C861.955 2.25157 867.682 2.25157 872.264 5.2453C876.846 8.23904 882.573 8.23904 889.446 5.2453C896.318 2.25157 902.046 2.25157 906.627 5.2453C911.209 8.23904 916.936 8.23904 923.809 5.2453C930.682 2.25157 936.409 2.25157 940.991 5.2453C945.573 8.23904 951.3 8.23904 958.172 5.2453C965.045 2.25157 970.772 2.25157 975.354 5.2453C979.936 8.23904 985.663 8.23904 992.536 5.2453C999.408 2.25157 1005.14 2.25157 1009.72 5.2453C1014.3 8.23904 1020.03 8.23904 1026.9 5.2453" stroke="#FF4575" stroke-width="5.99997"/>
<path d="M1026.9 5.2453C1033.77 2.25157 1039.5 2.25157 1044.08 5.2453C1048.66 8.23904 1054.39 8.23904 1061.26 5.2453C1068.13 2.25157 1073.86 2.25157 1078.44 5.2453C1083.03 8.23904 1088.75 8.23904 1095.63 5.2453C1102.5 2.25157 1108.23 2.25157 1112.81 5.2453C1117.39 8.23904 1123.12 8.23904 1129.99 5.2453C1136.86 2.25157 1142.59 2.25157 1147.17 5.2453C1151.75 8.23904 1157.48 8.23904 1164.35 5.2453C1171.22 2.25157 1176.95 2.25157 1181.53 5.2453C1186.12 8.23904 1191.84 8.23904 1198.72 5.2453" stroke="#FF4575" stroke-width="5.99997"/>
<path d="M1198.72 5.2453C1205.59 2.25157 1211.32 2.25157 1215.9 5.2453C1220.48 8.23904 1226.21 8.23904 1233.08 5.2453C1239.95 2.25157 1245.68 2.25157 1250.26 5.2453C1254.84 8.23904 1260.57 8.23904 1267.44 5.2453C1274.31 2.25157 1280.04 2.25157 1284.62 5.2453C1289.21 8.23904 1294.93 8.23904 1301.81 5.2453C1308.68 2.25157 1314.41 2.25157 1318.99 5.2453C1323.57 8.23904 1329.3 8.23904 1336.17 5.2453C1343.04 2.25157 1348.77 2.25157 1353.35 5.2453C1357.93 8.23904 1363.66 8.23904 1370.53 5.2453" stroke="#FF4575" stroke-width="5.99997"/>
<path d="M1370.53 5.2453C1377.4 2.25157 1383.13 2.25157 1387.71 5.2453C1392.3 8.23904 1398.02 8.23904 1404.9 5.2453C1411.77 2.25157 1417.5 2.25157 1422.08 5.2453C1426.66 8.23904 1432.39 8.23904 1439.26 5.2453C1446.13 2.25157 1451.86 2.25157 1456.44 5.2453C1461.02 8.23904 1466.75 8.23904 1473.62 5.2453C1480.49 2.25157 1486.22 2.25157 1490.8 5.2453C1495.39 8.23904 1501.11 8.23904 1507.99 5.2453C1514.86 2.25157 1520.59 2.25157 1525.17 5.2453C1529.75 8.23904 1535.48 8.23904 1542.35 5.2453" stroke="#FF4575" stroke-width="5.99997"/>
</svg>
