<svg width="195" height="48" viewBox="0 0 195 48" fill="none" xmlns="http://www.w3.org/2000/svg">
<rect width="195" height="48" rx="24" fill="white"/>
<path d="M14 33.0609C14 35.655 15.2945 37 17.7901 37H30.2099C32.7056 37 34 35.655 34 33.0609V14.939C34 12.357 32.7056 11 30.2099 11H17.7901C15.2945 11 14 12.357 14 14.939V33.0609ZM16.2857 32.9168V15.0831C16.2857 13.9663 16.8455 13.3538 17.9767 13.3538H30.0117C31.1428 13.3538 31.7144 13.9663 31.7144 15.0831V32.9168C31.7144 34.0337 31.1428 34.6462 30.0117 34.6462H17.9767C16.8455 34.6462 16.2857 34.0337 16.2857 32.9168ZM19.7376 18.2896H28.274C28.6939 18.2896 29.0204 17.9533 29.0204 17.521C29.0204 17.1007 28.6939 16.7764 28.274 16.7764H19.7376C19.3061 16.7764 18.9796 17.1007 18.9796 17.521C18.9796 17.9533 19.3061 18.2896 19.7376 18.2896ZM19.7376 22.3968H28.274C28.6939 22.3968 29.0204 22.0605 29.0204 21.6282C29.0204 21.2078 28.6939 20.8836 28.274 20.8836H19.7376C19.3061 20.8836 18.9796 21.2078 18.9796 21.6282C18.9796 22.0605 19.3061 22.3968 19.7376 22.3968ZM19.7376 26.5039H23.8659C24.2857 26.5039 24.6006 26.1797 24.6006 25.7593C24.6006 25.327 24.2857 24.9787 23.8659 24.9787H19.7376C19.3061 24.9787 18.9796 25.327 18.9796 25.7593C18.9796 26.1797 19.3061 26.5039 19.7376 26.5039Z" fill="#333333"/>
<path d="M56.88 31V17H62.64C63.88 17 64.94 17.2 65.82 17.6C66.7133 18 67.4 18.5733 67.88 19.32C68.36 20.0667 68.6 20.9533 68.6 21.98C68.6 23.0067 68.36 23.8933 67.88 24.64C67.4 25.3733 66.7133 25.94 65.82 26.34C64.94 26.7267 63.88 26.92 62.64 26.92H58.32L59.48 25.74V31H56.88ZM66.04 31L62.5 25.92H65.28L68.84 31H66.04ZM59.48 26.02L58.32 24.78H62.52C63.6667 24.78 64.5267 24.5333 65.1 24.04C65.6867 23.5467 65.98 22.86 65.98 21.98C65.98 21.0867 65.6867 20.4 65.1 19.92C64.5267 19.44 63.6667 19.2 62.52 19.2H58.32L59.48 17.92V26.02ZM76.2889 31.14C75.1022 31.14 74.0622 30.9067 73.1689 30.44C72.2889 29.96 71.6022 29.3067 71.1089 28.48C70.6289 27.6533 70.3889 26.7133 70.3889 25.66C70.3889 24.5933 70.6222 23.6533 71.0889 22.84C71.5689 22.0133 72.2222 21.3667 73.0489 20.9C73.8889 20.4333 74.8422 20.2 75.9089 20.2C76.9489 20.2 77.8756 20.4267 78.6889 20.88C79.5022 21.3333 80.1422 21.9733 80.6089 22.8C81.0756 23.6267 81.3089 24.6 81.3089 25.72C81.3089 25.8267 81.3022 25.9467 81.2889 26.08C81.2889 26.2133 81.2822 26.34 81.2689 26.46H72.3689V24.8H79.9489L78.9689 25.32C78.9822 24.7067 78.8556 24.1667 78.5889 23.7C78.3222 23.2333 77.9556 22.8667 77.4889 22.6C77.0356 22.3333 76.5089 22.2 75.9089 22.2C75.2956 22.2 74.7556 22.3333 74.2889 22.6C73.8356 22.8667 73.4756 23.24 73.2089 23.72C72.9556 24.1867 72.8289 24.74 72.8289 25.38V25.78C72.8289 26.42 72.9756 26.9867 73.2689 27.48C73.5622 27.9733 73.9756 28.3533 74.5089 28.62C75.0422 28.8867 75.6556 29.02 76.3489 29.02C76.9489 29.02 77.4889 28.9267 77.9689 28.74C78.4489 28.5533 78.8756 28.26 79.2489 27.86L80.5889 29.4C80.1089 29.96 79.5022 30.3933 78.7689 30.7C78.0489 30.9933 77.2222 31.14 76.2889 31.14ZM89.9973 31V28.84L89.8573 28.38V24.6C89.8573 23.8667 89.6373 23.3 89.1973 22.9C88.7573 22.4867 88.0907 22.28 87.1973 22.28C86.5973 22.28 86.004 22.3733 85.4173 22.56C84.844 22.7467 84.3573 23.0067 83.9573 23.34L82.9773 21.52C83.5507 21.08 84.2307 20.7533 85.0173 20.54C85.8173 20.3133 86.644 20.2 87.4973 20.2C89.044 20.2 90.2373 20.5733 91.0773 21.32C91.9307 22.0533 92.3573 23.1933 92.3573 24.74V31H89.9973ZM86.6373 31.14C85.8373 31.14 85.1373 31.0067 84.5373 30.74C83.9373 30.46 83.4707 30.08 83.1373 29.6C82.8173 29.1067 82.6573 28.5533 82.6573 27.94C82.6573 27.34 82.7973 26.8 83.0773 26.32C83.3707 25.84 83.844 25.46 84.4973 25.18C85.1507 24.9 86.0173 24.76 87.0973 24.76H90.1973V26.42H87.2773C86.424 26.42 85.8507 26.56 85.5573 26.84C85.264 27.1067 85.1173 27.44 85.1173 27.84C85.1173 28.2933 85.2973 28.6533 85.6573 28.92C86.0173 29.1867 86.5173 29.32 87.1573 29.32C87.7707 29.32 88.3173 29.18 88.7973 28.9C89.2907 28.62 89.644 28.2067 89.8573 27.66L90.2773 29.16C90.0373 29.7867 89.604 30.2733 88.9773 30.62C88.364 30.9667 87.584 31.14 86.6373 31.14ZM100.105 31.14C99.0786 31.14 98.152 30.9133 97.3253 30.46C96.512 29.9933 95.872 29.3533 95.4053 28.54C94.9386 27.7267 94.7053 26.7667 94.7053 25.66C94.7053 24.5533 94.9386 23.5933 95.4053 22.78C95.872 21.9667 96.512 21.3333 97.3253 20.88C98.152 20.4267 99.0786 20.2 100.105 20.2C100.999 20.2 101.799 20.4 102.505 20.8C103.212 21.1867 103.772 21.78 104.185 22.58C104.599 23.38 104.805 24.4067 104.805 25.66C104.805 26.9 104.605 27.9267 104.205 28.74C103.805 29.54 103.252 30.14 102.545 30.54C101.839 30.94 101.025 31.14 100.105 31.14ZM100.405 29C101.005 29 101.539 28.8667 102.005 28.6C102.485 28.3333 102.865 27.9467 103.145 27.44C103.439 26.9333 103.585 26.34 103.585 25.66C103.585 24.9667 103.439 24.3733 103.145 23.88C102.865 23.3733 102.485 22.9867 102.005 22.72C101.539 22.4533 101.005 22.32 100.405 22.32C99.8053 22.32 99.2653 22.4533 98.7853 22.72C98.3186 22.9867 97.9386 23.3733 97.6453 23.88C97.3653 24.3733 97.2253 24.9667 97.2253 25.66C97.2253 26.34 97.3653 26.9333 97.6453 27.44C97.9386 27.9467 98.3186 28.3333 98.7853 28.6C99.2653 28.8667 99.8053 29 100.405 29ZM103.645 31V28.48L103.745 25.64L103.545 22.8V16.16H106.025V31H103.645ZM121.423 31V28.84L121.283 28.38V24.6C121.283 23.8667 121.063 23.3 120.623 22.9C120.183 22.4867 119.516 22.28 118.623 22.28C118.023 22.28 117.43 22.3733 116.843 22.56C116.27 22.7467 115.783 23.0067 115.383 23.34L114.403 21.52C114.976 21.08 115.656 20.7533 116.443 20.54C117.243 20.3133 118.07 20.2 118.923 20.2C120.47 20.2 121.663 20.5733 122.503 21.32C123.356 22.0533 123.783 23.1933 123.783 24.74V31H121.423ZM118.063 31.14C117.263 31.14 116.563 31.0067 115.963 30.74C115.363 30.46 114.896 30.08 114.563 29.6C114.243 29.1067 114.083 28.5533 114.083 27.94C114.083 27.34 114.223 26.8 114.503 26.32C114.796 25.84 115.27 25.46 115.923 25.18C116.576 24.9 117.443 24.76 118.523 24.76H121.623V26.42H118.703C117.85 26.42 117.276 26.56 116.983 26.84C116.69 27.1067 116.543 27.44 116.543 27.84C116.543 28.2933 116.723 28.6533 117.083 28.92C117.443 29.1867 117.943 29.32 118.583 29.32C119.196 29.32 119.743 29.18 120.223 28.9C120.716 28.62 121.07 28.2067 121.283 27.66L121.703 29.16C121.463 29.7867 121.03 30.2733 120.403 30.62C119.79 30.9667 119.01 31.14 118.063 31.14ZM126.992 31V20.32H129.372V23.26L129.092 22.4C129.412 21.68 129.912 21.1333 130.592 20.76C131.285 20.3867 132.145 20.2 133.172 20.2V22.58C133.065 22.5533 132.965 22.54 132.872 22.54C132.778 22.5267 132.685 22.52 132.592 22.52C131.645 22.52 130.892 22.8 130.332 23.36C129.772 23.9067 129.492 24.7267 129.492 25.82V31H126.992ZM139.703 31.14C138.53 31.14 137.623 30.84 136.983 30.24C136.343 29.6267 136.023 28.7267 136.023 27.54V17.96H138.523V27.48C138.523 27.9867 138.65 28.38 138.903 28.66C139.17 28.94 139.536 29.08 140.003 29.08C140.563 29.08 141.03 28.9333 141.403 28.64L142.103 30.42C141.81 30.66 141.45 30.84 141.023 30.96C140.596 31.08 140.156 31.14 139.703 31.14ZM134.263 22.4V20.4H141.383V22.4H134.263ZM144.16 31V20.32H146.66V31H144.16ZM145.42 18.56C144.953 18.56 144.566 18.4133 144.26 18.12C143.966 17.8267 143.82 17.4733 143.82 17.06C143.82 16.6333 143.966 16.28 144.26 16C144.566 15.7067 144.953 15.56 145.42 15.56C145.886 15.56 146.266 15.7 146.56 15.98C146.866 16.2467 147.02 16.5867 147.02 17C147.02 17.44 146.873 17.8133 146.58 18.12C146.286 18.4133 145.9 18.56 145.42 18.56ZM154.841 31.14C153.721 31.14 152.721 30.9067 151.841 30.44C150.974 29.96 150.294 29.3067 149.801 28.48C149.307 27.6533 149.061 26.7133 149.061 25.66C149.061 24.5933 149.307 23.6533 149.801 22.84C150.294 22.0133 150.974 21.3667 151.841 20.9C152.721 20.4333 153.721 20.2 154.841 20.2C155.881 20.2 156.794 20.4133 157.581 20.84C158.381 21.2533 158.987 21.8667 159.401 22.68L157.481 23.8C157.161 23.2933 156.767 22.92 156.301 22.68C155.847 22.44 155.354 22.32 154.821 22.32C154.207 22.32 153.654 22.4533 153.161 22.72C152.667 22.9867 152.281 23.3733 152.001 23.88C151.721 24.3733 151.581 24.9667 151.581 25.66C151.581 26.3533 151.721 26.9533 152.001 27.46C152.281 27.9533 152.667 28.3333 153.161 28.6C153.654 28.8667 154.207 29 154.821 29C155.354 29 155.847 28.88 156.301 28.64C156.767 28.4 157.161 28.0267 157.481 27.52L159.401 28.64C158.987 29.44 158.381 30.06 157.581 30.5C156.794 30.9267 155.881 31.14 154.841 31.14ZM161.464 31V16.16H163.964V31H161.464ZM172.265 31.14C171.079 31.14 170.039 30.9067 169.145 30.44C168.265 29.96 167.579 29.3067 167.085 28.48C166.605 27.6533 166.365 26.7133 166.365 25.66C166.365 24.5933 166.599 23.6533 167.065 22.84C167.545 22.0133 168.199 21.3667 169.025 20.9C169.865 20.4333 170.819 20.2 171.885 20.2C172.925 20.2 173.852 20.4267 174.665 20.88C175.479 21.3333 176.119 21.9733 176.585 22.8C177.052 23.6267 177.285 24.6 177.285 25.72C177.285 25.8267 177.279 25.9467 177.265 26.08C177.265 26.2133 177.259 26.34 177.245 26.46H168.345V24.8H175.925L174.945 25.32C174.959 24.7067 174.832 24.1667 174.565 23.7C174.299 23.2333 173.932 22.8667 173.465 22.6C173.012 22.3333 172.485 22.2 171.885 22.2C171.272 22.2 170.732 22.3333 170.265 22.6C169.812 22.8667 169.452 23.24 169.185 23.72C168.932 24.1867 168.805 24.74 168.805 25.38V25.78C168.805 26.42 168.952 26.9867 169.245 27.48C169.539 27.9733 169.952 28.3533 170.485 28.62C171.019 28.8867 171.632 29.02 172.325 29.02C172.925 29.02 173.465 28.9267 173.945 28.74C174.425 28.5533 174.852 28.26 175.225 27.86L176.565 29.4C176.085 29.96 175.479 30.3933 174.745 30.7C174.025 30.9933 173.199 31.14 172.265 31.14Z" fill="#333333"/>
</svg>
