<svg width="283" height="48" viewBox="0 0 283 48" fill="none" xmlns="http://www.w3.org/2000/svg">
<rect width="283" height="48" rx="24" fill="white"/>
<path d="M14 33.0609C14 35.655 15.2945 37 17.7901 37H30.2099C32.7056 37 34 35.655 34 33.0609V14.939C34 12.357 32.7056 11 30.2099 11H17.7901C15.2945 11 14 12.357 14 14.939V33.0609ZM16.2857 32.9168V15.0831C16.2857 13.9663 16.8455 13.3538 17.9767 13.3538H30.0117C31.1428 13.3538 31.7144 13.9663 31.7144 15.0831V32.9168C31.7144 34.0337 31.1428 34.6462 30.0117 34.6462H17.9767C16.8455 34.6462 16.2857 34.0337 16.2857 32.9168ZM19.7376 18.2896H28.274C28.6939 18.2896 29.0204 17.9533 29.0204 17.521C29.0204 17.1007 28.6939 16.7764 28.274 16.7764H19.7376C19.3061 16.7764 18.9796 17.1007 18.9796 17.521C18.9796 17.9533 19.3061 18.2896 19.7376 18.2896ZM19.7376 22.3968H28.274C28.6939 22.3968 29.0204 22.0605 29.0204 21.6282C29.0204 21.2078 28.6939 20.8836 28.274 20.8836H19.7376C19.3061 20.8836 18.9796 21.2078 18.9796 21.6282C18.9796 22.0605 19.3061 22.3968 19.7376 22.3968ZM19.7376 26.5039H23.8659C24.2857 26.5039 24.6006 26.1797 24.6006 25.7593C24.6006 25.327 24.2857 24.9787 23.8659 24.9787H19.7376C19.3061 24.9787 18.9796 25.327 18.9796 25.7593C18.9796 26.1797 19.3061 26.5039 19.7376 26.5039Z" fill="#333333"/>
<path d="M61.02 31L54.9 17H57.72L63.18 29.66H61.56L67.08 17H69.68L63.58 31H61.02ZM71.015 31V20.32H73.515V31H71.015ZM72.275 18.56C71.8083 18.56 71.4217 18.4133 71.115 18.12C70.8217 17.8267 70.675 17.4733 70.675 17.06C70.675 16.6333 70.8217 16.28 71.115 16C71.4217 15.7067 71.8083 15.56 72.275 15.56C72.7417 15.56 73.1217 15.7 73.415 15.98C73.7217 16.2467 73.875 16.5867 73.875 17C73.875 17.44 73.7283 17.8133 73.435 18.12C73.1417 18.4133 72.755 18.56 72.275 18.56ZM81.8163 31.14C80.6296 31.14 79.5896 30.9067 78.6963 30.44C77.8163 29.96 77.1296 29.3067 76.6363 28.48C76.1563 27.6533 75.9163 26.7133 75.9163 25.66C75.9163 24.5933 76.1496 23.6533 76.6163 22.84C77.0963 22.0133 77.7496 21.3667 78.5763 20.9C79.4163 20.4333 80.3696 20.2 81.4363 20.2C82.4763 20.2 83.4029 20.4267 84.2163 20.88C85.0296 21.3333 85.6696 21.9733 86.1363 22.8C86.6029 23.6267 86.8363 24.6 86.8363 25.72C86.8363 25.8267 86.8296 25.9467 86.8163 26.08C86.8163 26.2133 86.8096 26.34 86.7963 26.46H77.8963V24.8H85.4763L84.4963 25.32C84.5096 24.7067 84.3829 24.1667 84.1163 23.7C83.8496 23.2333 83.4829 22.8667 83.0163 22.6C82.5629 22.3333 82.0363 22.2 81.4363 22.2C80.8229 22.2 80.2829 22.3333 79.8163 22.6C79.3629 22.8667 79.0029 23.24 78.7363 23.72C78.4829 24.1867 78.3563 24.74 78.3563 25.38V25.78C78.3563 26.42 78.5029 26.9867 78.7963 27.48C79.0896 27.9733 79.5029 28.3533 80.0363 28.62C80.5696 28.8867 81.1829 29.02 81.8763 29.02C82.4763 29.02 83.0163 28.9267 83.4963 28.74C83.9763 28.5533 84.4029 28.26 84.7763 27.86L86.1163 29.4C85.6363 29.96 85.0296 30.3933 84.2963 30.7C83.5763 30.9933 82.7496 31.14 81.8163 31.14ZM91.4023 31L87.4823 20.32H89.8423L93.2023 29.74H92.0823L95.6023 20.32H97.7023L101.122 29.74H100.022L103.482 20.32H105.702L101.762 31H99.3623L96.2423 22.66H96.9823L93.8023 31H91.4023ZM118.869 31.14C118.002 31.14 117.209 30.94 116.489 30.54C115.782 30.14 115.215 29.54 114.789 28.74C114.375 27.9267 114.169 26.9 114.169 25.66C114.169 24.4067 114.369 23.38 114.769 22.58C115.182 21.78 115.742 21.1867 116.449 20.8C117.155 20.4 117.962 20.2 118.869 20.2C119.922 20.2 120.849 20.4267 121.649 20.88C122.462 21.3333 123.102 21.9667 123.569 22.78C124.049 23.5933 124.289 24.5533 124.289 25.66C124.289 26.7667 124.049 27.7333 123.569 28.56C123.102 29.3733 122.462 30.0067 121.649 30.46C120.849 30.9133 119.922 31.14 118.869 31.14ZM112.949 34.88V20.32H115.329V22.84L115.249 25.68L115.449 28.52V34.88H112.949ZM118.589 29C119.189 29 119.722 28.8667 120.189 28.6C120.669 28.3333 121.049 27.9467 121.329 27.44C121.609 26.9333 121.749 26.34 121.749 25.66C121.749 24.9667 121.609 24.3733 121.329 23.88C121.049 23.3733 120.669 22.9867 120.189 22.72C119.722 22.4533 119.189 22.32 118.589 22.32C117.989 22.32 117.449 22.4533 116.969 22.72C116.489 22.9867 116.109 23.3733 115.829 23.88C115.549 24.3733 115.409 24.9667 115.409 25.66C115.409 26.34 115.549 26.9333 115.829 27.44C116.109 27.9467 116.489 28.3333 116.969 28.6C117.449 28.8667 117.989 29 118.589 29ZM132.72 20.2C133.573 20.2 134.333 20.3667 135 20.7C135.68 21.0333 136.213 21.5467 136.6 22.24C136.986 22.92 137.18 23.8 137.18 24.88V31H134.68V25.2C134.68 24.2533 134.453 23.5467 134 23.08C133.56 22.6133 132.94 22.38 132.14 22.38C131.553 22.38 131.033 22.5 130.58 22.74C130.126 22.98 129.773 23.34 129.52 23.82C129.28 24.2867 129.16 24.88 129.16 25.6V31H126.66V16.16H129.16V23.2L128.62 22.32C128.993 21.64 129.533 21.12 130.24 20.76C130.96 20.3867 131.786 20.2 132.72 20.2ZM145.17 31.14C144.077 31.14 143.104 30.9067 142.25 30.44C141.397 29.96 140.724 29.3067 140.23 28.48C139.737 27.6533 139.49 26.7133 139.49 25.66C139.49 24.5933 139.737 23.6533 140.23 22.84C140.724 22.0133 141.397 21.3667 142.25 20.9C143.104 20.4333 144.077 20.2 145.17 20.2C146.277 20.2 147.257 20.4333 148.11 20.9C148.977 21.3667 149.65 22.0067 150.13 22.82C150.624 23.6333 150.87 24.58 150.87 25.66C150.87 26.7133 150.624 27.6533 150.13 28.48C149.65 29.3067 148.977 29.96 148.11 30.44C147.257 30.9067 146.277 31.14 145.17 31.14ZM145.17 29C145.784 29 146.33 28.8667 146.81 28.6C147.29 28.3333 147.664 27.9467 147.93 27.44C148.21 26.9333 148.35 26.34 148.35 25.66C148.35 24.9667 148.21 24.3733 147.93 23.88C147.664 23.3733 147.29 22.9867 146.81 22.72C146.33 22.4533 145.79 22.32 145.19 22.32C144.577 22.32 144.03 22.4533 143.55 22.72C143.084 22.9867 142.71 23.3733 142.43 23.88C142.15 24.3733 142.01 24.9667 142.01 25.66C142.01 26.34 142.15 26.9333 142.43 27.44C142.71 27.9467 143.084 28.3333 143.55 28.6C144.03 28.8667 144.57 29 145.17 29ZM157.281 31.14C156.108 31.14 155.201 30.84 154.561 30.24C153.921 29.6267 153.601 28.7267 153.601 27.54V17.96H156.101V27.48C156.101 27.9867 156.228 28.38 156.481 28.66C156.748 28.94 157.114 29.08 157.581 29.08C158.141 29.08 158.608 28.9333 158.981 28.64L159.681 30.42C159.388 30.66 159.028 30.84 158.601 30.96C158.174 31.08 157.734 31.14 157.281 31.14ZM151.841 22.4V20.4H158.961V22.4H151.841ZM166.186 31.14C165.093 31.14 164.119 30.9067 163.266 30.44C162.413 29.96 161.739 29.3067 161.246 28.48C160.753 27.6533 160.506 26.7133 160.506 25.66C160.506 24.5933 160.753 23.6533 161.246 22.84C161.739 22.0133 162.413 21.3667 163.266 20.9C164.119 20.4333 165.093 20.2 166.186 20.2C167.293 20.2 168.273 20.4333 169.126 20.9C169.993 21.3667 170.666 22.0067 171.146 22.82C171.639 23.6333 171.886 24.58 171.886 25.66C171.886 26.7133 171.639 27.6533 171.146 28.48C170.666 29.3067 169.993 29.96 169.126 30.44C168.273 30.9067 167.293 31.14 166.186 31.14ZM166.186 29C166.799 29 167.346 28.8667 167.826 28.6C168.306 28.3333 168.679 27.9467 168.946 27.44C169.226 26.9333 169.366 26.34 169.366 25.66C169.366 24.9667 169.226 24.3733 168.946 23.88C168.679 23.3733 168.306 22.9867 167.826 22.72C167.346 22.4533 166.806 22.32 166.206 22.32C165.593 22.32 165.046 22.4533 164.566 22.72C164.099 22.9867 163.726 23.3733 163.446 23.88C163.166 24.3733 163.026 24.9667 163.026 25.66C163.026 26.34 163.166 26.9333 163.446 27.44C163.726 27.9467 164.099 28.3333 164.566 28.6C165.046 28.8667 165.586 29 166.186 29ZM185.724 31.14C184.857 31.14 184.064 30.94 183.344 30.54C182.637 30.14 182.071 29.54 181.644 28.74C181.231 27.9267 181.024 26.9 181.024 25.66C181.024 24.4067 181.224 23.38 181.624 22.58C182.037 21.78 182.597 21.1867 183.304 20.8C184.011 20.4 184.817 20.2 185.724 20.2C186.777 20.2 187.704 20.4267 188.504 20.88C189.317 21.3333 189.957 21.9667 190.424 22.78C190.904 23.5933 191.144 24.5533 191.144 25.66C191.144 26.7667 190.904 27.7333 190.424 28.56C189.957 29.3733 189.317 30.0067 188.504 30.46C187.704 30.9133 186.777 31.14 185.724 31.14ZM179.804 34.88V20.32H182.184V22.84L182.104 25.68L182.304 28.52V34.88H179.804ZM185.444 29C186.044 29 186.577 28.8667 187.044 28.6C187.524 28.3333 187.904 27.9467 188.184 27.44C188.464 26.9333 188.604 26.34 188.604 25.66C188.604 24.9667 188.464 24.3733 188.184 23.88C187.904 23.3733 187.524 22.9867 187.044 22.72C186.577 22.4533 186.044 22.32 185.444 22.32C184.844 22.32 184.304 22.4533 183.824 22.72C183.344 22.9867 182.964 23.3733 182.684 23.88C182.404 24.3733 182.264 24.9667 182.264 25.66C182.264 26.34 182.404 26.9333 182.684 27.44C182.964 27.9467 183.344 28.3333 183.824 28.6C184.304 28.8667 184.844 29 185.444 29ZM198.315 31.14C197.222 31.14 196.248 30.9067 195.395 30.44C194.542 29.96 193.868 29.3067 193.375 28.48C192.882 27.6533 192.635 26.7133 192.635 25.66C192.635 24.5933 192.882 23.6533 193.375 22.84C193.868 22.0133 194.542 21.3667 195.395 20.9C196.248 20.4333 197.222 20.2 198.315 20.2C199.422 20.2 200.402 20.4333 201.255 20.9C202.122 21.3667 202.795 22.0067 203.275 22.82C203.768 23.6333 204.015 24.58 204.015 25.66C204.015 26.7133 203.768 27.6533 203.275 28.48C202.795 29.3067 202.122 29.96 201.255 30.44C200.402 30.9067 199.422 31.14 198.315 31.14ZM198.315 29C198.928 29 199.475 28.8667 199.955 28.6C200.435 28.3333 200.808 27.9467 201.075 27.44C201.355 26.9333 201.495 26.34 201.495 25.66C201.495 24.9667 201.355 24.3733 201.075 23.88C200.808 23.3733 200.435 22.9867 199.955 22.72C199.475 22.4533 198.935 22.32 198.335 22.32C197.722 22.32 197.175 22.4533 196.695 22.72C196.228 22.9867 195.855 23.3733 195.575 23.88C195.295 24.3733 195.155 24.9667 195.155 25.66C195.155 26.34 195.295 26.9333 195.575 27.44C195.855 27.9467 196.228 28.3333 196.695 28.6C197.175 28.8667 197.715 29 198.315 29ZM206.406 31V20.32H208.786V23.26L208.506 22.4C208.826 21.68 209.326 21.1333 210.006 20.76C210.699 20.3867 211.559 20.2 212.586 20.2V22.58C212.479 22.5533 212.379 22.54 212.286 22.54C212.192 22.5267 212.099 22.52 212.006 22.52C211.059 22.52 210.306 22.8 209.746 23.36C209.186 23.9067 208.906 24.7267 208.906 25.82V31H206.406ZM219.117 31.14C217.944 31.14 217.037 30.84 216.397 30.24C215.757 29.6267 215.437 28.7267 215.437 27.54V17.96H217.937V27.48C217.937 27.9867 218.064 28.38 218.317 28.66C218.584 28.94 218.95 29.08 219.417 29.08C219.977 29.08 220.444 28.9333 220.817 28.64L221.517 30.42C221.224 30.66 220.864 30.84 220.437 30.96C220.01 31.08 219.57 31.14 219.117 31.14ZM213.677 22.4V20.4H220.797V22.4H213.677ZM223.914 31V19.72C223.914 18.6 224.24 17.7067 224.894 17.04C225.56 16.36 226.507 16.02 227.734 16.02C228.174 16.02 228.587 16.0667 228.974 16.16C229.374 16.2533 229.707 16.4 229.974 16.6L229.294 18.48C229.107 18.3333 228.894 18.2267 228.654 18.16C228.414 18.08 228.167 18.04 227.914 18.04C227.394 18.04 227 18.1867 226.734 18.48C226.467 18.76 226.334 19.1867 226.334 19.76V20.96L226.414 22.08V31H223.914ZM222.154 22.4V20.4H229.274V22.4H222.154ZM235.6 31.14C234.507 31.14 233.533 30.9067 232.68 30.44C231.827 29.96 231.153 29.3067 230.66 28.48C230.167 27.6533 229.92 26.7133 229.92 25.66C229.92 24.5933 230.167 23.6533 230.66 22.84C231.153 22.0133 231.827 21.3667 232.68 20.9C233.533 20.4333 234.507 20.2 235.6 20.2C236.707 20.2 237.687 20.4333 238.54 20.9C239.407 21.3667 240.08 22.0067 240.56 22.82C241.053 23.6333 241.3 24.58 241.3 25.66C241.3 26.7133 241.053 27.6533 240.56 28.48C240.08 29.3067 239.407 29.96 238.54 30.44C237.687 30.9067 236.707 31.14 235.6 31.14ZM235.6 29C236.213 29 236.76 28.8667 237.24 28.6C237.72 28.3333 238.093 27.9467 238.36 27.44C238.64 26.9333 238.78 26.34 238.78 25.66C238.78 24.9667 238.64 24.3733 238.36 23.88C238.093 23.3733 237.72 22.9867 237.24 22.72C236.76 22.4533 236.22 22.32 235.62 22.32C235.007 22.32 234.46 22.4533 233.98 22.72C233.513 22.9867 233.14 23.3733 232.86 23.88C232.58 24.3733 232.44 24.9667 232.44 25.66C232.44 26.34 232.58 26.9333 232.86 27.44C233.14 27.9467 233.513 28.3333 233.98 28.6C234.46 28.8667 235 29 235.6 29ZM243.691 31V16.16H246.191V31H243.691ZM249.472 31V20.32H251.972V31H249.472ZM250.732 18.56C250.265 18.56 249.879 18.4133 249.572 18.12C249.279 17.8267 249.132 17.4733 249.132 17.06C249.132 16.6333 249.279 16.28 249.572 16C249.879 15.7067 250.265 15.56 250.732 15.56C251.199 15.56 251.579 15.7 251.872 15.98C252.179 16.2467 252.332 16.5867 252.332 17C252.332 17.44 252.185 17.8133 251.892 18.12C251.599 18.4133 251.212 18.56 250.732 18.56ZM260.053 31.14C258.96 31.14 257.987 30.9067 257.133 30.44C256.28 29.96 255.607 29.3067 255.113 28.48C254.62 27.6533 254.373 26.7133 254.373 25.66C254.373 24.5933 254.62 23.6533 255.113 22.84C255.607 22.0133 256.28 21.3667 257.133 20.9C257.987 20.4333 258.96 20.2 260.053 20.2C261.16 20.2 262.14 20.4333 262.993 20.9C263.86 21.3667 264.533 22.0067 265.013 22.82C265.507 23.6333 265.753 24.58 265.753 25.66C265.753 26.7133 265.507 27.6533 265.013 28.48C264.533 29.3067 263.86 29.96 262.993 30.44C262.14 30.9067 261.16 31.14 260.053 31.14ZM260.053 29C260.667 29 261.213 28.8667 261.693 28.6C262.173 28.3333 262.547 27.9467 262.813 27.44C263.093 26.9333 263.233 26.34 263.233 25.66C263.233 24.9667 263.093 24.3733 262.813 23.88C262.547 23.3733 262.173 22.9867 261.693 22.72C261.213 22.4533 260.673 22.32 260.073 22.32C259.46 22.32 258.913 22.4533 258.433 22.72C257.967 22.9867 257.593 23.3733 257.313 23.88C257.033 24.3733 256.893 24.9667 256.893 25.66C256.893 26.34 257.033 26.9333 257.313 27.44C257.593 27.9467 257.967 28.3333 258.433 28.6C258.913 28.8667 259.453 29 260.053 29Z" fill="#333333"/>
</svg>
